Patient4_TMGait_0pt6_01_left_33_GRF.mot
version=1
nRows=26
nColumns=19
inDegrees=no
endheader
time	F1x	F1y	F1z	M1x	M1y	M1z	F2x	F2y	F2z	M2x	M2y	M2z	EC1x	EC1y	EC1z	EC2x	EC2y	EC2z
40.17	-14.8484	16.395	-3.812	-2.3279	-0.030099	23.9478	-26.782	726.0664	-45.1383	282.7134	51.8627	725.7518	-0.0592	0.0182	-0.0073	-0.0462	0.0165	0.9585
40.1821	-9.8738	11.4111	-2.5858	-1.7052	0.014653	16.3955	-26.3751	730.0711	-46.0311	283.4498	53.1285	727.4357	-0.0592	0.0182	-0.0073	-0.0462	0.0165	0.9585
40.1943	-5.7544	7.2569	-1.5104	-1.2086	-0.0019358	10.1192	-25.4645	735.5127	-46.8233	284.6081	53.9953	729.839	-0.0592	0.0182	-0.0073	-0.0462	0.0165	0.9585
40.2064	-2.6715	4.1389	-0.67067	-0.85252	-0.044652	5.4096	-24.0924	742.4258	-47.5473	286.244	54.4683	733.0932	-0.0592	0.0182	-0.0073	-0.0462	0.0165	0.9585
40.2186	-0.59007	2.0197	-0.074266	-0.62538	-0.09841	2.2056	-22.3815	750.7063	-48.2475	288.3626	54.6271	737.2273	-0.0592	0.0182	-0.0073	-0.0462	0.0165	0.9585
40.2307	0.64593	0.73729	0.3046	-0.50188	-0.1547	0.26821	-20.4719	760.0574	-48.9849	290.8926	54.5931	742.0804	-0.0592	0.0182	-0.0073	-0.0462	0.0165	0.9585
40.2429	1.245	0.063748	0.51593	-0.44487	-0.21339	-0.74248	-18.5277	769.9402	-49.7774	293.6639	54.4648	747.2587	-0.0592	0.0182	-0.0073	-0.0462	0.0165	0.9585
40.255	1.3835	-0.22266	0.60077	-0.41536	-0.27384	-1.1417	-16.6575	779.5551	-50.6296	296.3987	54.3175	752.0904	-0.0592	0.0182	-0.0073	-0.0462	0.0165	0.9585
40.2671	1.2345	-0.36199	0.61433	-0.36551	-0.34543	-1.2738	-14.9509	787.9346	-51.4832	298.7458	54.1552	755.7394	-0.0592	0.0182	-0.0073	-0.0462	0.0165	0.9585
40.2793	0.89672	-0.54497	0.5768	-0.25586	-0.42528	-1.3783	-13.4309	794.0094	-52.2693	300.3094	53.9465	757.2542	-0.0592	0.0182	-0.0073	-0.0462	0.0165	0.9585
40.2914	0.48685	-0.95422	0.5257	-0.042876	-0.51722	-1.6993	-12.1007	796.7492	-52.9147	300.7001	53.6455	755.7378	-0.0592	0.0182	-0.0073	-0.0462	0.0165	0.9585
40.3036	0.046888	-1.7045	0.46489	0.30356	-0.60946	-2.3661	-10.9014	795.2693	-53.3986	299.5817	53.2346	750.4076	-0.0592	0.0182	-0.0073	-0.0462	0.0165	0.9585
40.3157	-0.33784	-2.8714	0.42389	0.80094	-0.70094	-3.5016	-9.7592	789.0497	-53.7271	296.7557	52.7053	740.8154	-0.0592	0.0182	-0.0073	-0.0462	0.0165	0.9585
40.3279	-0.62247	-4.4188	0.39993	1.4337	-0.77104	-5.0622	-8.5347	778.0657	-53.9558	292.217	52.0668	726.931	-0.0592	0.0182	-0.0073	-0.0462	0.0165	0.9585
40.34	-0.69022	-6.2133	0.40066	2.1474	-0.78189	-6.9281	-7.0883	762.8908	-54.1278	286.193	51.3129	709.2544	-0.0592	0.0182	-0.0073	-0.0462	0.0165	0.9585
40.3521	-0.43766	-7.9056	0.40201	2.8131	-0.66603	-8.7042	-5.2975	744.6594	-54.2832	279.1277	50.4478	688.7866	-0.0592	0.0182	-0.0073	-0.0462	0.0165	0.9585
40.3643	0.31688	-8.9183	0.38412	3.2129	-0.3363	-9.7812	-3.0971	724.9844	-54.4265	271.648	49.4654	666.9738	-0.0592	0.0182	-0.0073	-0.0462	0.0165	0.9585
40.3764	1.7424	-8.32	0.30478	2.9971	0.31228	-9.1419	-0.50151	705.8097	-54.5295	264.5026	48.3515	645.5814	-0.0592	0.0182	-0.0073	-0.0462	0.0165	0.9585
40.3886	4.0245	-4.8576	0.12918	1.6849	1.3859	-5.4176	2.4302	689.1729	-54.5493	258.4658	47.0886	626.4589	-0.0592	0.0182	-0.0073	-0.0462	0.0165	0.9585
40.4007	7.278	3.062	-0.18505	-1.3294	2.971	3.1541	5.5914	676.9076	-54.4345	254.2146	45.6585	611.2857	-0.0592	0.0182	-0.0073	-0.0462	0.0165	0.9585
40.4129	11.4866	17.2092	-0.66293	-6.7171	5.0836	18.5135	8.8966	670.2482	-54.1508	252.1824	44.0523	601.189	-0.0592	0.0182	-0.0073	-0.0462	0.0165	0.9585
40.425	16.3738	39.2318	-1.3179	-15.0997	7.6217	42.47	12.2293	669.513	-53.6865	252.4354	42.2877	596.5112	-0.0592	0.0182	-0.0073	-0.0462	0.0165	0.9585
40.4371	21.2405	70.1237	-2.1153	-26.8513	10.2726	76.1203	15.5008	673.8067	-53.0446	254.5769	40.3847	596.4997	-0.0592	0.0182	-0.0073	-0.0462	0.0165	0.9585
40.4493	24.8281	109.3986	-2.956	-41.7884	12.4358	118.9532	18.6238	681.0616	-52.2043	257.7685	38.3387	599.3896	-0.0592	0.0182	-0.0073	-0.0462	0.0165	0.9585
40.4614	25.2674	154.132	-3.6263	-58.801	13.1713	167.8298	21.5844	688.3297	-51.1087	260.8582	36.1015	602.6117	-0.0592	0.0182	-0.0073	-0.0462	0.0165	0.9585
40.4736	21.0471	198.6091	-3.7012	-75.7136	11.4679	216.5518	24.3225	692.4215	-49.6472	262.6246	33.6044	603.4049	-0.0592	0.0182	-0.0073	-0.0462	0.0165	0.9585
